# xmcd CD database file
#
# Track frame offsets:
#	150
#	17505
#	31340
#	45547
#	66607
#	81952
#	94217
#	115222
#	134122
#	151365
#	164622
#	181722
#
# Disc length: 2642 seconds
#
# Revision: 0
# Processed by: cddbd v1.5.1PL0 Copyright (c) Steve Scherf et al.
# Submitted via: CDex 1.51
#
DISCID=a10a500c
DTITLE=ストレイテナー - TITLE
DYEAR=2005
DGENRE=JPop
TTITLE0=SAD AND BEAUTIFUL WORLD
TTITLE1=PLAY THE STAR GUITAR
TTITLE2=泳ぐ鳥
TTITLE3=TENDER  [TITLE Version]
TTITLE4=REBIRTH
TTITLE5=STILLNESS IN TIME
TTITLE6=AGAINST THE WALL
TTITLE7=LOVE RECORD
TTITLE8=REMINDER
TTITLE9=AMAZING STORIES
TTITLE10=EVERGREEN
TTITLE11=KILLER TUNE [Natural Born Killer Tune Mix]
EXTD=YEAR: 2005
EXTT0=
EXTT1=
EXTT2=
EXTT3=
EXTT4=
EXTT5=
EXTT6=
EXTT7=
EXTT8=
EXTT9=
EXTT10=
EXTT11=
PLAYORDER=
